<svg version="1.1" id="Layer_1" xmlns="http://www.w3.org/2000/svg" xmlns:xlink="http://www.w3.org/1999/xlink" x="0px" y="0px"
	 width="100%" viewBox="0 0 63 53" enable-background="new 0 0 63 53" xml:space="preserve">
<path fill="#FEFEFE" opacity="0" stroke="none" 
	d="
M44.000957,54.000000 
	C29.334110,54.000000 15.167464,54.000000 1.000614,54.000000 
	C1.000409,36.333633 1.000409,18.667265 1.000205,1.000673 
	C21.999670,1.000449 42.999340,1.000449 63.999256,1.000224 
	C63.999504,18.666309 63.999504,36.332619 63.999752,53.999466 
	C57.500385,54.000000 51.000774,54.000000 44.000957,54.000000 
M36.923782,47.769192 
	C38.504322,47.249977 40.109272,46.794605 41.661461,46.201218 
	C51.959217,42.264484 56.802418,30.102556 52.244133,19.688105 
	C47.832279,9.608215 35.661892,4.933068 25.873486,9.558050 
	C16.847033,13.823012 12.228321,22.789642 14.260625,32.102909 
	C16.438244,42.082092 24.661585,48.025398 36.923782,47.769192 
z"/>
<path fill="#BFBFBF" opacity="1.000000" stroke="none" 
	d="
M36.506371,47.824112 
	C24.661585,48.025398 16.438244,42.082092 14.260625,32.102909 
	C12.228321,22.789642 16.847033,13.823012 25.873486,9.558050 
	C35.661892,4.933068 47.832279,9.608215 52.244133,19.688105 
	C56.802418,30.102556 51.959217,42.264484 41.661461,46.201218 
	C40.109272,46.794605 38.504322,47.249977 36.506371,47.824112 
M30.892942,37.093204 
	C32.019939,38.378162 33.146935,39.663116 34.273930,40.948074 
	C35.197979,39.621647 36.763542,38.365757 36.918690,36.954781 
	C37.295197,33.530689 37.284363,30.000542 36.853428,26.585836 
	C36.704258,25.403795 34.855419,24.436251 33.782932,23.370731 
	C32.823303,24.501780 31.197132,25.545532 31.035315,26.781071 
	C30.631245,29.866297 30.892302,33.038635 30.892942,37.093204 
M32.851238,14.652228 
	C32.469402,16.449255 32.087570,18.246281 31.705736,20.043306 
	C33.065399,20.179394 34.849335,20.892199 35.666580,20.290977 
	C36.500408,19.677555 36.873077,17.626299 36.528961,16.480425 
	C36.255917,15.571198 34.595882,15.078490 32.851238,14.652228 
z"/>
<path fill="#FDFDFD" opacity="1.000000" stroke="none" 
	d="
M30.889687,36.634609 
	C30.892302,33.038635 30.631245,29.866297 31.035315,26.781071 
	C31.197132,25.545532 32.823303,24.501780 33.782932,23.370731 
	C34.855419,24.436251 36.704258,25.403795 36.853428,26.585836 
	C37.284363,30.000542 37.295197,33.530689 36.918690,36.954781 
	C36.763542,38.365757 35.197979,39.621647 34.273930,40.948074 
	C33.146935,39.663116 32.019939,38.378162 30.889687,36.634609 
z"/>
<path fill="#FBFBFB" opacity="1.000000" stroke="none" 
	d="
M33.201462,14.526537 
	C34.595882,15.078490 36.255917,15.571198 36.528961,16.480425 
	C36.873077,17.626299 36.500408,19.677555 35.666580,20.290977 
	C34.849335,20.892199 33.065399,20.179394 31.705736,20.043306 
	C32.087570,18.246281 32.469402,16.449255 33.201462,14.526537 
z"/>
</svg>