<svg version="1.1" id="Layer_1" xmlns="http://www.w3.org/2000/svg" xmlns:xlink="http://www.w3.org/1999/xlink" x="0px" y="0px"
	 width="100%" viewBox="0 0 83 91" enable-background="new 0 0 83 91" xml:space="preserve">
<path fill="#FAFCFB" opacity="0" stroke="none" 
	d="
M49.000000,92.000000 
	C32.689445,92.000000 16.878891,92.000000 1.034169,92.000000 
	C1.034169,61.733116 1.034169,31.466188 1.034169,1.099628 
	C28.560125,1.099628 56.120731,1.099628 83.840668,1.099628 
	C83.840668,31.332657 83.840668,61.666256 83.840668,92.000000 
	C72.466873,92.000000 60.983437,92.000000 49.000000,92.000000 
M52.002846,23.621235 
	C48.559628,24.928282 45.642681,29.105438 41.306637,25.395407 
	C34.965702,19.969936 28.631332,20.249924 22.361364,25.602617 
	C21.739851,26.133205 20.978018,26.562473 20.210293,26.847445 
	C17.418247,27.883821 16.791311,29.883247 16.832380,32.724842 
	C16.986454,43.385220 16.877386,54.049217 16.914955,64.711693 
	C16.919874,66.107811 17.203577,67.502945 17.425133,69.503235 
	C19.244411,68.826897 20.669827,68.675278 21.561405,67.905418 
	C28.428379,61.975960 35.091610,61.853836 42.146358,67.763794 
	C43.306408,68.735603 46.671455,68.741402 47.832512,67.773003 
	C54.881233,61.893833 61.462677,62.035240 68.431114,67.877869 
	C71.458244,70.415939 73.176826,69.222771 73.133659,65.218529 
	C73.042061,56.722755 72.513390,48.171753 73.275169,39.743835 
	C74.014328,31.566278 71.626976,26.520376 63.840805,23.152294 
	C59.631779,21.331585 56.364624,20.185448 52.002846,23.621235 
z"/>
<path fill="#101010" opacity="1.000000" stroke="none" 
	d="
M52.301384,23.407858 
	C56.364624,20.185448 59.631779,21.331585 63.840805,23.152294 
	C71.626976,26.520376 74.014328,31.566278 73.275169,39.743835 
	C72.513390,48.171753 73.042061,56.722755 73.133659,65.218529 
	C73.176826,69.222771 71.458244,70.415939 68.431114,67.877869 
	C61.462677,62.035240 54.881233,61.893833 47.832512,67.773003 
	C46.671455,68.741402 43.306408,68.735603 42.146358,67.763794 
	C35.091610,61.853836 28.428379,61.975960 21.561405,67.905418 
	C20.669827,68.675278 19.244411,68.826897 17.425133,69.503235 
	C17.203577,67.502945 16.919874,66.107811 16.914955,64.711693 
	C16.877386,54.049217 16.986454,43.385220 16.832380,32.724842 
	C16.791311,29.883247 17.418247,27.883821 20.210293,26.847445 
	C20.978018,26.562473 21.739851,26.133205 22.361364,25.602617 
	C28.631332,20.249924 34.965702,19.969936 41.306637,25.395407 
	C45.642681,29.105438 48.559628,24.928282 52.301384,23.407858 
M33.873688,43.496910 
	C33.873688,45.982384 33.873692,48.467857 33.873692,50.953331 
	C33.873688,60.043327 33.873684,60.043327 43.037548,63.473755 
	C43.037548,54.796783 43.037567,46.210213 43.037544,37.623642 
	C43.037525,30.208200 41.685848,28.559067 33.873688,26.569361 
	C33.873688,31.901388 33.873688,37.200912 33.873688,43.496910 
M46.962452,38.626854 
	C46.962452,46.937504 46.962452,55.248154 46.962452,64.081215 
	C49.318111,62.742085 51.024906,62.029587 52.406727,60.914413 
	C53.812469,59.779926 55.919159,58.279190 55.960648,56.886456 
	C56.263680,46.713394 56.123890,36.527138 56.123890,25.739826 
	C50.825752,28.684956 45.070423,30.262081 46.962452,38.626854 
M20.747131,33.932076 
	C20.747131,43.676704 20.747131,53.421337 20.747131,63.165966 
	C21.150650,63.446705 21.554169,63.727440 21.957687,64.008179 
	C24.627676,61.693130 29.381880,59.559299 29.601686,57.031216 
	C30.485817,46.862579 29.967649,36.572021 29.967649,26.326517 
	C29.579981,26.028803 29.192314,25.731089 28.804646,25.433376 
	C26.119379,27.968491 23.434111,30.503607 20.747131,33.932076 
M61.621593,26.478745 
	C61.090324,27.258009 60.109436,28.030470 60.097519,28.817596 
	C59.981533,36.479900 60.027599,44.144657 60.027569,51.808716 
	C60.027538,59.600143 61.105026,60.957245 69.253052,63.140072 
	C69.253052,55.091084 68.813271,47.084743 69.395218,39.153370 
	C69.843285,33.046783 68.182419,28.965551 61.621593,26.478745 
z"/>
<path fill="#F9FBFA" opacity="1.000000" stroke="none" 
	d="
M33.873688,42.998672 
	C33.873688,37.200912 33.873688,31.901388 33.873688,26.569361 
	C41.685848,28.559067 43.037525,30.208200 43.037544,37.623642 
	C43.037567,46.210213 43.037548,54.796783 43.037548,63.473755 
	C33.873684,60.043327 33.873688,60.043327 33.873692,50.953331 
	C33.873692,48.467857 33.873688,45.982384 33.873688,42.998672 
z"/>
<path fill="#F9FBFA" opacity="1.000000" stroke="none" 
	d="
M46.962452,38.148041 
	C45.070423,30.262081 50.825752,28.684956 56.123890,25.739826 
	C56.123890,36.527138 56.263680,46.713394 55.960648,56.886456 
	C55.919159,58.279190 53.812469,59.779926 52.406727,60.914413 
	C51.024906,62.029587 49.318111,62.742085 46.962452,64.081215 
	C46.962452,55.248154 46.962452,46.937504 46.962452,38.148041 
z"/>
<path fill="#F9FBFA" opacity="1.000000" stroke="none" 
	d="
M20.747986,33.485397 
	C23.434111,30.503607 26.119379,27.968491 28.804646,25.433376 
	C29.192314,25.731089 29.579981,26.028803 29.967649,26.326517 
	C29.967649,36.572021 30.485817,46.862579 29.601686,57.031216 
	C29.381880,59.559299 24.627676,61.693130 21.957687,64.008179 
	C21.554169,63.727440 21.150650,63.446705 20.747131,63.165966 
	C20.747131,53.421337 20.747131,43.676704 20.747986,33.485397 
z"/>
<path fill="#F9FBFA" opacity="1.000000" stroke="none" 
	d="
M61.959755,26.699814 
	C68.182419,28.965551 69.843285,33.046783 69.395218,39.153370 
	C68.813271,47.084743 69.253052,55.091084 69.253052,63.140072 
	C61.105026,60.957245 60.027538,59.600143 60.027569,51.808716 
	C60.027599,44.144657 59.981533,36.479900 60.097519,28.817596 
	C60.109436,28.030470 61.090324,27.258009 61.959755,26.699814 
z"/>
</svg>