<svg version="1.1" id="Layer_1" xmlns="http://www.w3.org/2000/svg" xmlns:xlink="http://www.w3.org/1999/xlink" x="0px" y="0px"
	 width="100%" viewBox="0 0 51 58" enable-background="new 0 0 51 58" xml:space="preserve">
<path fill="#F6F8F7" opacity="0" stroke="none" 
	d="
M1.000000,21.000576 
	C1.000000,14.015694 1.000000,7.530628 1.000000,1.022781 
	C17.945730,1.022781 34.891495,1.022781 51.918633,1.022781 
	C51.918633,20.234394 51.918633,39.469193 51.918633,58.852001 
	C35.000931,58.852001 18.000643,58.852001 1.000000,58.852001 
	C1.000000,46.443012 1.000000,33.971703 1.000000,21.000576 
M49.094620,25.523342 
	C49.092434,24.525040 49.260479,23.490860 49.058945,22.534569 
	C48.127308,18.113897 48.520184,11.743293 45.772438,9.754136 
	C41.258453,6.486358 36.105480,2.676908 29.537155,2.888610 
	C23.165237,3.093982 17.271849,3.228221 11.236510,6.703154 
	C5.718288,9.880349 3.085905,11.026889 2.991092,17.415190 
	C2.850372,26.896614 2.831296,36.383968 3.000259,45.864529 
	C3.129868,53.136917 6.468652,56.596416 13.701118,56.808132 
	C21.846975,57.046589 30.009964,57.038857 38.156540,56.813782 
	C45.606567,56.607952 48.829685,53.122005 49.003113,45.482521 
	C49.146576,39.162834 49.072422,32.838207 49.094620,25.523342 
z"/>
<path fill="#121212" opacity="1.000000" stroke="none" 
	d="
M49.094658,26.019554 
	C49.072422,32.838207 49.146576,39.162834 49.003113,45.482521 
	C48.829685,53.122005 45.606567,56.607952 38.156540,56.813782 
	C30.009964,57.038857 21.846975,57.046589 13.701118,56.808132 
	C6.468652,56.596416 3.129868,53.136917 3.000259,45.864529 
	C2.831296,36.383968 2.850372,26.896614 2.991092,17.415190 
	C3.085905,11.026889 5.718288,9.880349 11.236510,6.703154 
	C17.271849,3.228221 23.165237,3.093982 29.537155,2.888610 
	C36.105480,2.676908 41.258453,6.486358 45.772438,9.754136 
	C48.520184,11.743293 48.127308,18.113897 49.058945,22.534569 
	C49.260479,23.490860 49.092434,24.525040 49.094658,26.019554 
M6.734936,36.481071 
	C6.826687,39.973217 6.939037,43.464977 7.004300,46.957619 
	C7.067476,50.338551 8.690995,52.367058 12.121557,52.394356 
	C21.419783,52.468349 30.719660,52.453968 40.017773,52.362324 
	C43.562695,52.327389 44.910385,50.044571 44.965832,46.776276 
	C45.064598,40.954788 45.225945,35.133057 45.221340,29.311535 
	C45.217659,24.655737 45.237137,19.975931 44.753174,15.358470 
	C44.599117,13.888583 43.115459,12.094263 41.753361,11.390019 
	C40.945866,10.972520 39.172054,12.363175 37.860199,12.997598 
	C36.264183,13.769444 34.734127,15.193647 33.110455,15.295211 
	C28.312620,15.595323 23.476892,15.510069 18.669071,15.289882 
	C17.303448,15.227339 15.968824,14.216617 14.644732,13.588553 
	C13.062222,12.837916 10.467313,11.052008 10.120408,11.420056 
	C8.691990,12.935538 7.231500,15.046288 7.089028,17.031885 
	C6.649281,23.160585 6.808707,29.332279 6.734936,36.481071 
M20.797447,6.843026 
	C19.498192,7.679094 18.198935,8.515162 16.899679,9.351231 
	C18.266996,10.176119 19.573704,11.556221 21.013905,11.713435 
	C24.284433,12.070450 27.646704,12.068046 30.918186,11.715438 
	C32.371635,11.558782 33.695728,10.201951 35.078537,9.389886 
	C33.606514,8.540850 32.205265,7.165779 30.647211,6.956146 
	C27.721613,6.562510 24.705374,6.842534 20.797447,6.843026 
z"/>
<path fill="#F8FAF9" opacity="1.000000" stroke="none" 
	d="
M6.735175,35.984173 
	C6.808707,29.332279 6.649281,23.160585 7.089028,17.031885 
	C7.231500,15.046288 8.691990,12.935538 10.120408,11.420056 
	C10.467313,11.052008 13.062222,12.837916 14.644732,13.588553 
	C15.968824,14.216617 17.303448,15.227339 18.669071,15.289882 
	C23.476892,15.510069 28.312620,15.595323 33.110455,15.295211 
	C34.734127,15.193647 36.264183,13.769444 37.860199,12.997598 
	C39.172054,12.363175 40.945866,10.972520 41.753361,11.390019 
	C43.115459,12.094263 44.599117,13.888583 44.753174,15.358470 
	C45.237137,19.975931 45.217659,24.655737 45.221340,29.311535 
	C45.225945,35.133057 45.064598,40.954788 44.965832,46.776276 
	C44.910385,50.044571 43.562695,52.327389 40.017773,52.362324 
	C30.719660,52.453968 21.419783,52.468349 12.121557,52.394356 
	C8.690995,52.367058 7.067476,50.338551 7.004300,46.957619 
	C6.939037,43.464977 6.826687,39.973217 6.735175,35.984173 
M33.780918,29.242321 
	C35.217941,28.799278 36.654964,28.356236 38.091988,27.913193 
	C36.879051,26.171101 35.871811,25.470724 34.851692,25.451439 
	C29.030895,25.341381 23.202902,25.280107 17.387884,25.491684 
	C16.297647,25.531349 15.255124,26.882399 14.190583,27.628286 
	C15.272507,28.165850 16.340677,29.132568 17.438702,29.167763 
	C22.590885,29.332890 27.751276,29.241882 33.780918,29.242321 
M25.765591,41.821465 
	C26.432350,41.020538 27.099110,40.219616 27.765869,39.418690 
	C26.964258,38.940128 26.185307,38.100712 25.356913,38.048698 
	C22.544809,37.872128 19.705225,37.838356 16.897961,38.045628 
	C15.964288,38.114563 15.096413,39.074657 14.198461,39.627350 
	C15.108528,40.375694 15.956750,41.655109 16.940622,41.769684 
	C19.562372,42.074997 22.242502,41.879013 25.765591,41.821465 
z"/>
<path fill="#ECEEED" opacity="1.000000" stroke="none" 
	d="
M21.262138,6.842719 
	C24.705374,6.842534 27.721613,6.562510 30.647211,6.956146 
	C32.205265,7.165779 33.606514,8.540850 35.078537,9.389887 
	C33.695728,10.201951 32.371635,11.558782 30.918186,11.715438 
	C27.646704,12.068046 24.284433,12.070450 21.013905,11.713435 
	C19.573704,11.556221 18.266996,10.176119 16.899679,9.351231 
	C18.198935,8.515162 19.498192,7.679094 21.262138,6.842719 
z"/>
<path fill="#1F2020" opacity="1.000000" stroke="none" 
	d="
M33.344826,29.242329 
	C27.751276,29.241882 22.590885,29.332890 17.438702,29.167763 
	C16.340677,29.132568 15.272507,28.165850 14.190583,27.628286 
	C15.255124,26.882399 16.297647,25.531349 17.387884,25.491684 
	C23.202902,25.280107 29.030895,25.341381 34.851692,25.451439 
	C35.871811,25.470724 36.879051,26.171101 38.091988,27.913193 
	C36.654964,28.356236 35.217941,28.799278 33.344826,29.242329 
z"/>
<path fill="#171817" opacity="1.000000" stroke="none" 
	d="
M25.332506,41.851894 
	C22.242502,41.879013 19.562372,42.074997 16.940622,41.769684 
	C15.956750,41.655109 15.108528,40.375694 14.198460,39.627350 
	C15.096413,39.074657 15.964288,38.114563 16.897961,38.045628 
	C19.705225,37.838356 22.544809,37.872128 25.356913,38.048698 
	C26.185307,38.100712 26.964258,38.940128 27.765869,39.418690 
	C27.099110,40.219616 26.432350,41.020538 25.332506,41.851894 
z"/>
</svg>