<svg version="1.1" id="Layer_1" xmlns="http://www.w3.org/2000/svg" xmlns:xlink="http://www.w3.org/1999/xlink" x="0px" y="0px"
	 width="100%" viewBox="0 0 84 73" enable-background="new 0 0 84 73" xml:space="preserve">
<path fill="#FAFCFB" opacity="0" stroke="none" 
	d="
M56.000000,74.000000 
	C37.333336,74.000000 19.166674,74.000000 1.000007,74.000000 
	C1.000005,49.666676 1.000005,25.333349 1.000002,1.000017 
	C28.999987,1.000011 56.999973,1.000011 84.999969,1.000006 
	C84.999985,25.333315 84.999985,49.666630 84.999992,73.999969 
	C75.500000,74.000000 66.000000,74.000000 56.000000,74.000000 
M68.066917,51.184830 
	C68.161644,42.037712 68.419266,32.888596 68.306961,23.744020 
	C68.185707,13.871202 66.201347,11.860438 57.161350,10.874823 
	C55.905666,9.106006 54.881577,7.663424 53.857487,6.220842 
	C52.936790,7.760352 52.016094,9.299862 51.012581,10.977849 
	C48.610397,10.977849 46.119308,10.977849 43.628223,10.977849 
	C41.168255,10.977849 38.708282,10.977849 37.357464,10.977849 
	C35.805782,8.846292 34.849754,7.532990 33.893726,6.219688 
	C32.950928,7.764555 32.008133,9.309422 30.989029,10.979321 
	C22.454491,11.566627 19.914263,13.887077 19.726460,22.481033 
	C19.526672,31.623484 19.595911,40.780876 19.877010,49.921616 
	C20.067436,56.113873 22.978130,59.399353 28.975414,59.618713 
	C38.940540,59.983204 48.931190,59.868282 58.905445,59.670525 
	C63.742168,59.574627 66.996002,56.982128 68.066917,51.184830 
z"/>
<path fill="#121212" opacity="1.000000" stroke="none" 
	d="
M68.032547,51.602570 
	C66.996002,56.982128 63.742168,59.574627 58.905445,59.670525 
	C48.931190,59.868282 38.940540,59.983204 28.975414,59.618713 
	C22.978130,59.399353 20.067436,56.113873 19.877010,49.921616 
	C19.595911,40.780876 19.526672,31.623484 19.726460,22.481033 
	C19.914263,13.887077 22.454491,11.566627 30.989029,10.979321 
	C32.008133,9.309422 32.950928,7.764555 33.893726,6.219687 
	C34.849754,7.532990 35.805782,8.846292 37.357464,10.977849 
	C38.708282,10.977849 41.168255,10.977849 43.628223,10.977849 
	C46.119308,10.977849 48.610397,10.977849 51.012581,10.977849 
	C52.016094,9.299862 52.936790,7.760352 53.857487,6.220842 
	C54.881577,7.663424 55.905666,9.106006 57.161350,10.874823 
	C66.201347,11.860438 68.185707,13.871202 68.306961,23.744020 
	C68.419266,32.888596 68.161644,42.037712 68.032547,51.602570 
M46.499229,29.863718 
	C38.909988,29.863718 31.320744,29.863718 23.658682,29.863718 
	C23.658682,37.194382 23.658606,43.815289 23.658714,50.436192 
	C23.658773,54.001675 25.829399,55.677769 29.008036,55.724190 
	C38.991207,55.869984 48.984474,55.964005 58.956894,55.606125 
	C60.715317,55.543022 63.776924,53.304237 63.874207,51.905830 
	C64.375473,44.700512 64.106735,37.441628 64.106735,29.863651 
	C58.456982,29.863651 52.977707,29.863651 46.499229,29.863718 
M56.181293,15.475944 
	C55.485714,16.818235 54.790134,18.160526 54.094555,19.502815 
	C53.053570,18.061501 52.012585,16.620188 50.909569,15.092987 
	C46.190414,15.092987 41.242500,15.092987 36.990238,15.092987 
	C35.889595,16.876604 35.081837,18.185589 34.274082,19.494574 
	C33.165829,18.139708 32.057571,16.784842 30.731859,15.164127 
	C24.133717,14.987152 22.269659,17.697268 24.053835,25.738571 
	C37.439472,25.738571 50.840614,25.738571 64.217163,25.738571 
	C65.042366,16.843027 63.811764,15.101660 56.181293,15.475944 
z"/>
<path fill="#FAFCFB" opacity="1.000000" stroke="none" 
	d="
M46.998833,29.863686 
	C52.977707,29.863651 58.456982,29.863651 64.106735,29.863651 
	C64.106735,37.441628 64.375473,44.700512 63.874207,51.905830 
	C63.776924,53.304237 60.715317,55.543022 58.956894,55.606125 
	C48.984474,55.964005 38.991207,55.869984 29.008036,55.724190 
	C25.829399,55.677769 23.658773,54.001675 23.658714,50.436192 
	C23.658606,43.815289 23.658682,37.194382 23.658682,29.863718 
	C31.320744,29.863718 38.909988,29.863718 46.998833,29.863686 
z"/>
<path fill="#FAFCFB" opacity="1.000000" stroke="none" 
	d="
M56.538445,15.289389 
	C63.811764,15.101660 65.042366,16.843027 64.217163,25.738571 
	C50.840614,25.738571 37.439472,25.738571 24.053835,25.738571 
	C22.269659,17.697268 24.133717,14.987152 30.731859,15.164127 
	C32.057571,16.784842 33.165829,18.139708 34.274082,19.494574 
	C35.081837,18.185589 35.889595,16.876604 36.990238,15.092987 
	C41.242500,15.092987 46.190414,15.092987 50.909569,15.092987 
	C52.012585,16.620188 53.053570,18.061501 54.094559,19.502815 
	C54.790134,18.160526 55.485714,16.818235 56.538445,15.289389 
z"/>
</svg>