<svg version="1.1" id="Layer_1" xmlns="http://www.w3.org/2000/svg" xmlns:xlink="http://www.w3.org/1999/xlink" x="0px" y="0px"
	 width="100%" viewBox="0 0 72 59" enable-background="new 0 0 72 59" xml:space="preserve">
<path fill="#F9FBFA" opacity="0" stroke="none" 
	d="
M55.002815,60.000000 
	C36.669006,60.000000 18.835751,60.000000 1.001869,60.000000 
	C1.001246,40.334248 1.001246,20.668495 1.000623,1.002057 
	C24.998985,1.001371 48.997971,1.001371 72.997711,1.000685 
	C72.998474,20.665567 72.998474,40.331135 72.999237,59.998352 
	C67.167786,60.000000 61.335575,60.000000 55.002815,60.000000 
M38.292065,4.016005 
	C37.387066,5.366154 35.949211,6.612881 35.663818,8.083289 
	C33.853817,17.408842 27.890244,20.454397 19.036095,20.000792 
	C17.430260,19.918522 14.538121,21.354809 14.360558,22.437771 
	C14.085011,24.118330 15.107869,27.000456 16.490900,27.802032 
	C24.773821,32.602642 26.670862,39.130527 22.863260,47.653404 
	C22.797073,47.801552 22.737320,47.990299 22.770000,48.139149 
	C23.164490,49.935925 23.023779,52.544163 24.136457,53.299030 
	C25.308088,54.093906 28.309660,53.811207 29.428757,52.800400 
	C36.588444,46.333496 43.355392,46.242371 50.524136,52.788441 
	C51.640453,53.807796 54.641148,54.107117 55.825089,53.319077 
	C56.939045,52.577621 57.637550,49.630207 57.081745,48.219543 
	C53.569160,39.304432 55.088417,32.420383 63.835510,27.475605 
	C65.082260,26.770809 65.966484,24.014740 65.668045,22.468731 
	C65.459602,21.388905 62.871593,19.925337 61.476677,20.053268 
	C51.791714,20.941498 46.028782,17.048323 43.895760,7.367989 
	C43.570732,5.892917 40.669216,4.985565 38.292065,4.016005 
z"/>
<path fill="#101010" opacity="1.000000" stroke="none" 
	d="
M38.625725,3.915817 
	C40.669216,4.985565 43.570732,5.892917 43.895760,7.367989 
	C46.028782,17.048323 51.791714,20.941498 61.476677,20.053268 
	C62.871593,19.925337 65.459602,21.388905 65.668045,22.468731 
	C65.966484,24.014740 65.082260,26.770809 63.835510,27.475605 
	C55.088417,32.420383 53.569160,39.304432 57.081745,48.219543 
	C57.637550,49.630207 56.939045,52.577621 55.825089,53.319077 
	C54.641148,54.107117 51.640453,53.807796 50.524136,52.788441 
	C43.355392,46.242371 36.588444,46.333496 29.428757,52.800400 
	C28.309660,53.811207 25.308088,54.093906 24.136457,53.299030 
	C23.023779,52.544163 23.164490,49.935925 22.770000,48.139149 
	C22.737320,47.990299 22.797073,47.801552 22.863260,47.653404 
	C26.670862,39.130527 24.773821,32.602642 16.490900,27.802032 
	C15.107869,27.000456 14.085011,24.118330 14.360558,22.437771 
	C14.538121,21.354809 17.430260,19.918522 19.036095,20.000792 
	C27.890244,20.454397 33.853817,17.408842 35.663818,8.083289 
	C35.949211,6.612881 37.387066,5.366154 38.625725,3.915817 
M51.775230,40.939182 
	C49.993797,36.633389 50.394020,33.134804 54.793465,30.412189 
	C57.375237,28.814447 59.478558,26.443573 62.509964,23.798426 
	C58.014500,23.446678 54.551773,22.967424 51.088516,22.963528 
	C47.647327,22.959658 45.616676,21.719568 44.526276,18.320372 
	C43.447788,14.958307 41.789276,11.782302 39.990482,7.608919 
	C38.364147,11.397347 36.819542,14.127298 36.018440,17.060324 
	C34.744534,21.724440 31.852030,23.241447 27.284966,23.062452 
	C24.360378,22.947832 21.408916,23.518967 17.699303,23.851780 
	C18.946383,25.034945 19.608700,25.717686 20.326450,26.336086 
	C30.399031,35.014431 30.399162,35.011787 26.535908,47.803520 
	C26.433239,48.143459 26.468000,48.524910 26.412292,49.212730 
	C27.679981,48.862282 28.892273,48.897587 29.478603,48.309158 
	C37.511776,40.247257 44.864170,43.157440 52.073612,49.540382 
	C52.241257,49.688808 52.655197,49.559055 53.420895,49.559055 
	C52.909893,46.886196 52.417717,44.311813 51.775230,40.939182 
z"/>
<path fill="#F5F7F6" opacity="1.000000" stroke="none" 
	d="
M51.850388,41.338310 
	C52.417717,44.311813 52.909893,46.886196 53.420895,49.559055 
	C52.655197,49.559055 52.241257,49.688808 52.073612,49.540382 
	C44.864170,43.157440 37.511776,40.247257 29.478603,48.309158 
	C28.892273,48.897587 27.679981,48.862282 26.412292,49.212730 
	C26.468000,48.524910 26.433239,48.143459 26.535908,47.803520 
	C30.399162,35.011787 30.399031,35.014431 20.326450,26.336086 
	C19.608700,25.717686 18.946383,25.034945 17.699303,23.851780 
	C21.408916,23.518967 24.360378,22.947832 27.284966,23.062452 
	C31.852030,23.241447 34.744534,21.724440 36.018440,17.060324 
	C36.819542,14.127298 38.364147,11.397347 39.990482,7.608919 
	C41.789276,11.782302 43.447788,14.958307 44.526276,18.320372 
	C45.616676,21.719568 47.647327,22.959658 51.088516,22.963528 
	C54.551773,22.967424 58.014500,23.446678 62.509964,23.798426 
	C59.478558,26.443573 57.375237,28.814447 54.793465,30.412189 
	C50.394020,33.134804 49.993797,36.633389 51.850388,41.338310 
z"/>
</svg>