<svg version="1.1" id="Layer_1" xmlns="http://www.w3.org/2000/svg" xmlns:xlink="http://www.w3.org/1999/xlink" x="0px" y="0px"
	 width="100%" viewBox="0 0 75 73" enable-background="new 0 0 75 73" xml:space="preserve">
<path fill="none" opacity="1.000000" stroke="#000000" stroke-linecap="round" stroke-linejoin="round" stroke-width="3.000000"
	d="
M20.500000,16.000000 
	C18.224289,15.706115 16.862745,16.115480 16.939524,19.001608 
	C17.125610,25.996658 17.079027,33.001343 16.960127,39.999321 
	C16.914183,42.703316 18.395428,42.953617 20.498913,43.029949 
	C25.165539,43.199303 29.865648,42.428535 34.500000,43.500000 
"/>
<path fill="none" opacity="1.000000" stroke="#000000" stroke-linecap="round" stroke-linejoin="round" stroke-width="2.000000"
	d="
M46.000000,26.000000 
	C44.333332,26.666668 42.467617,27.050714 41.039715,28.056389 
	C37.630089,30.457785 36.076267,35.637695 37.506947,38.997040 
	C39.892464,44.598412 44.334042,46.530830 48.499908,45.999290 
	C52.500080,45.488888 56.306499,41.679539 57.000000,37.500000 
	C57.668804,33.469299 55.083027,28.812016 50.981907,27.041922 
	C49.596180,26.443827 48.000000,26.333332 46.500000,26.000000 
"/>
<path fill="none" opacity="1.000000" stroke="#000000" stroke-linecap="round" stroke-linejoin="round" stroke-width="3.000000"
	d="
M35.000000,49.000000 
	C28.005421,52.432461 27.235317,54.150387 28.533817,63.750000 
	C40.833332,63.750000 53.166668,63.750000 66.000000,63.750000 
	C66.000000,61.022018 66.158936,58.498516 65.962784,56.002926 
	C65.667755,52.249336 61.853977,49.084118 57.499649,49.026550 
	C50.167599,48.929626 42.833332,49.000000 35.500000,49.000000 
"/>
</svg>