<svg version="1.1" id="Layer_1" xmlns="http://www.w3.org/2000/svg" xmlns:xlink="http://www.w3.org/1999/xlink" x="0px" y="0px"
	 width="100%" viewBox="0 0 132 132" enable-background="new 0 0 132 132" xml:space="preserve">
<path fill="#FBFDFC" opacity="1.000000" stroke="none" 
	d="
M62.000000,133.000000 
	C41.333332,133.000000 21.166666,133.000000 1.000000,133.000000 
	C1.000000,89.000000 1.000000,45.000000 1.000000,1.000000 
	C45.000000,1.000000 89.000000,1.000000 133.000000,1.000000 
	C133.000000,45.000000 133.000000,89.000000 133.000000,133.000000 
	C109.500000,133.000000 86.000000,133.000000 62.000000,133.000000 
M79.870041,60.494728 
	C76.743713,60.494728 73.617378,60.494728 70.077179,60.494728 
	C70.077179,45.146278 70.077179,30.244783 70.077179,15.337610 
	C67.090775,15.337610 64.551765,15.337610 61.899040,15.337610 
	C61.899040,28.994026 61.722069,42.316902 62.004139,55.630051 
	C62.091652,59.760384 60.724873,60.685883 56.900566,60.574184 
	C48.245686,60.321407 39.578358,60.494709 30.916090,60.494724 
	C26.004427,60.494732 21.092764,60.494732 16.264778,60.494732 
	C16.264778,63.636253 16.264778,66.067184 16.264778,69.004959 
	C31.569624,69.004959 46.617474,69.004959 62.046417,69.004959 
	C62.046417,84.604416 62.046417,99.687225 62.046417,114.733734 
	C70.097855,115.285225 70.097992,115.285225 70.098061,107.645424 
	C70.098167,94.861221 70.098083,82.077019 70.098083,68.802994 
	C85.584373,68.802994 100.647896,68.802994 115.844437,68.802994 
	C115.844437,65.854927 115.844437,63.401665 115.844437,60.494774 
	C104.064796,60.494774 92.434837,60.494774 79.870041,60.494728 
z"/>
<path fill="#000000" opacity="1.000000" stroke="none" 
	d="
M80.337456,60.494751 
	C92.434837,60.494774 104.064796,60.494774 115.844437,60.494774 
	C115.844437,63.401665 115.844437,65.854927 115.844437,68.802994 
	C100.647896,68.802994 85.584373,68.802994 70.098083,68.802994 
	C70.098083,82.077019 70.098167,94.861221 70.098061,107.645424 
	C70.097992,115.285225 70.097855,115.285225 62.046417,114.733734 
	C62.046417,99.687225 62.046417,84.604416 62.046417,69.004959 
	C46.617474,69.004959 31.569624,69.004959 16.264778,69.004959 
	C16.264778,66.067184 16.264778,63.636253 16.264778,60.494732 
	C21.092764,60.494732 26.004427,60.494732 30.916090,60.494724 
	C39.578358,60.494709 48.245686,60.321407 56.900566,60.574184 
	C60.724873,60.685883 62.091652,59.760384 62.004139,55.630051 
	C61.722069,42.316902 61.899040,28.994026 61.899040,15.337610 
	C64.551765,15.337610 67.090775,15.337610 70.077179,15.337610 
	C70.077179,30.244783 70.077179,45.146278 70.077179,60.494728 
	C73.617378,60.494728 76.743713,60.494728 80.337456,60.494751 
z"/>
</svg>